# xmcd
#
# Track frame offsets:
#	150
#	18553
#	42175
#	62207
#	85231
#	113378
#	118424
#	139600
#	157562
#	180324
#	198275
#	213876
#	227055
#
# Disc length: 3547 seconds
#
# Revision: 2
# Processed by: cddbd v1.5.2PL0 Copyright (c) Steve Scherf et al.
# Submitted via: audiograbber 1.83.01
#
DISCID=9f0dd90d
DTITLE=61 North - On the Road
DYEAR=2009
DGENRE=Rock
TTITLE0=Blackwater
TTITLE1=On the Road
TTITLE2=Slavedriver
TTITLE3=Loaded Gun
TTITLE4=Midnight Hour
TTITLE5=Interlude (That's My Shit)
TTITLE6=Funk You
TTITLE7=Satisfy Your Weakness
TTITLE8=Find Some Love
TTITLE9=No Time
TTITLE10=Breaker's Point
TTITLE11=Doin' Time
TTITLE12=Jimi is Gone
EXTD=
EXTT0=
EXTT1=
EXTT2=
EXTT3=
EXTT4=
EXTT5=
EXTT6=
EXTT7=
EXTT8=
EXTT9=
EXTT10=
EXTT11=
EXTT12=
PLAYORDER=
